# AST/ASF file generated using VICON BodyLanguage
# -----------------------------------------------
:version 1.10
:name VICON
:units
  mass 1.0
  length 0.45
  angle deg
:documentation
   .ast/.asf automatically generated from VICON data using
   VICON BodyBuilder and BodyLanguage model FoxedUp or BRILLIANT.MOD
:root
   order TX TY TZ RX RY RZ
   axis XYZ
   position 0 0 0  
   orientation 0 0 0 
:bonedata
  begin
     id 1 
     name lhipjoint
     direction 0.693937 -0.600361 0.397515 
     length 2.37164 
     axis 0 0 0  XYZ
  end
  begin
     id 2 
     name lfemur
     direction 0.34202 -0.939693 0  
     length 6.18497  
     axis 0 0 20  XYZ
    dof rx ry rz
    limits (-160.0 20.0)
           (-70.0 70.0)
           (-60.0 70.0)
  end
  begin
     id 3 
     name ltibia
     direction 0.34202 -0.939693 0   
     length 6.91601   
     axis 0 0 20   XYZ
    dof rx
    limits (-10.0 170.0)
  end
  begin
     id 4 
     name lfoot
     direction 0.0978718 -0.2689 0.958182   
     length 1.81453   
     axis -90 7.62852e-016 20   XYZ
    dof rx rz
    limits (-45.0 90.0)
           (-70.0 20.0)
  end
  begin
     id 5 
     name ltoes
     direction 1.53569e-011 -4.21951e-011 1   
     length 0.912052   
     axis -90 7.62852e-016 20   XYZ
    dof rx
    limits (-90.0 20.0)
  end
  begin
     id 6 
     name rhipjoint
     direction -0.643996 -0.637876 0.422354   
     length 2.23216  
     axis 0 0 0  XYZ 
  end
  begin
     id 7 
     name rfemur
     direction -0.34202 -0.939693 0   
     length 6.15404   
     axis 0 0 -20   XYZ
    dof rx ry rz
    limits (-160.0 20.0)
           (-70.0 70.0)
           (-70.0 60.0)
  end
  begin
     id 8 
     name rtibia
     direction -0.34202 -0.939693 0   
     length 6.86744   
     axis 0 0 -20   XYZ
    dof rx
    limits (-10.0 170.0)
 end
 begin
     id 9 
     name rfoot
     direction -0.118701 -0.326127 0.937844   
     length 1.9243  
     axis -90 -7.62852e-016 -20   XYZ
    dof rx rz
    limits (-45.0 90.0)
           (-20.0 70.0)
  end
  begin
     id 10 
     name rtoes
     direction -1.5356e-011 -4.2181e-011 1   
     length 0.958865   
     axis -90 -7.62852e-016 -20   XYZ
    dof rx
    limits (-90.0 20.0)
  end
  begin
     id 11 
     name lowerback
     direction 0.0310826 0.968686 -0.246334   
     length 2.00021   
     axis 0 0 0   XYZ
    dof rx ry rz
    limits (-20.0 45.0)
           (-30.0 30.0)
           (-30.0 30.0)
  end
  begin
     id 12 
     name upperback
     direction -0.0152834 0.999474 -0.0286152   
     length 2.03728   
     axis 0 0 0   XYZ
    dof rx ry rz
    limits (-20.0 45.0)
           (-30.0 30.0)
           (-30.0 30.0)
  end
  begin
     id 13 
     name thorax
     direction -0.0323701 0.996236 0.0804149   
     length 2.16   
     axis 0 0 0   XYZ
    dof rx ry rz
    limits (-20.0 45.0)
           (-30.0 30.0)
           (-30.0 30.0)
  end
  begin
     id 14 
     name lowerneck
     direction 0.0307935 0.982251 0.185027   
     length 1.43558   
     axis 0 0 0   XYZ
    dof rx ry rz
    limits (-20.0 45.0)
           (-30.0 30.0)
           (-30.0 30.0)
  end
  begin
     id 15 
     name upperneck
     direction -0.0927153 0.994775 0.0427454   
     length 1.44603   
     axis 0 0 0   XYZ
    dof rx ry rz
    limits (-20.0 45.0)
           (-30.0 30.0)
           (-30.0 30.0)
  end
  begin
     id 16
     name head
     direction -0.0341265 0.999406 -0.00472033  
     length 1.45931  
     axis 0 0 0   XYZ
    dof rx ry rz
    limits (-20.0 45.0)
           (-30.0 30.0)
           (-30.0 30.0)
  end
  begin
     id 17 
     name lclavicle
     direction 0.820755 0.555306 -0.134151  
     length 2.66075  
     axis 0 0 0   XYZ
    dof ry rz
    limits (-20.0 10.0)
           (0.0 20.0)
  end
  begin
     id 18 
     name lhumerus
     direction 1 -4.48971e-011 5.24853e-027   
     length 5.0546   
     axis -180 -30 -90   XYZ
    dof rx ry rz
    limits (-60.0 90.0)
           (-90.0 90.0)
           (-90.0 90.0)
  end
  begin
     id 19
     name lradius
     direction 1 -4.48971e-011 2.76575e-028   
     length 3.39013   
     axis -180 -30 -90   XYZ
    dof rx
    limits (-10.0 170.0)
  end
  begin
     id 20
     name lwrist
     direction 1 -4.48939e-011 -2.27826e-027   
     length 1.69507   
     axis 2.17013e-015 90 90   XYZ
    dof ry
    limits (-180.0 0.0)
 end
  begin
     id 21 
     name lhand
     direction 1 -4.49009e-011 -4.55652e-027   
     length 0.572425   
     axis 2.90745e-015 90 90   XYZ
    dof rx rz
    limits (-90.0 90.0)
           (-45.0 45.0)
  end
  begin
     id 22 
     name lfingers
     direction 1 -4.48955e-011 -9.11303e-027   
     length 0.461504   
     axis 5.81489e-015 90 90   XYZ
    dof rx
    limits (0.0 90.0)
  end
  begin
     id 23
     name lthumb
     direction 0.707107 -6.34929e-011 0.707107   
     length 0.66263   
     axis -90 45 2.85299e-015   XYZ
    dof rx rz
    limits (-45.0 45.0)
           (-45.0 45.0)
  end
  begin
     id 24 
     name rclavicle
     direction -0.754477 0.632921 -0.173712   
     length 2.73081  
     axis 0 0 0   XYZ 
    dof ry rz
    limits (-10.0 20.0)
           (-20.0 0.0)
  end
  begin
     id 25 
     name rhumerus
     direction -1 -4.48969e-011 5.1496e-027  
     length 5.0701   
     axis -180 30 90   XYZ
    dof rx ry rz
    limits (-90.0 60.0)
           (-90.0 90.0)
           (-90.0 90.0)
  end
  begin
     id 26 
     name rradius
     direction -1 -4.48967e-011 -7.15624e-028   
     length 3.14957   
     axis -180 30 90   XYZ
    dof rx
    limits (-10.0 170.0)
  end
  begin
     id 27 
     name rwrist
     direction -1 -4.48938e-011 -2.27826e-027   
     length 1.57479   
     axis 2.17013e-015 -90 -90   XYZ
    dof ry
    limits (-180.0 0.0)
  end
  begin
     id 28
     name rhand
     direction -1 -4.49008e-011 -4.55652e-027   
     length 0.718191   
     axis 2.90745e-015 -90 -90   XYZ
    dof rx rz
    limits (-90.0 90.0)
           (-45.0 45.0)
  end
  begin
     id 29
     name rfingers
     direction -1 -4.48953e-011 -9.11303e-027   
     length 0.579024   
     axis 5.81489e-015 -90 -90   XYZ
    dof rx
    limits (0.0 90.0)
  end
  begin
     id 30
     name rthumb
     direction -0.707107 -6.34937e-011 0.707107   
     length 0.831366   
     axis -90 -45 -2.85299e-015   XYZ
    dof rx rz
    limits (-45.0 45.0)
           (-45.0 45.0)
  end
:hierarchy
  begin
    root lhipjoint rhipjoint lowerback
    lhipjoint lfemur
    lfemur ltibia
    ltibia lfoot
    lfoot ltoes
    rhipjoint rfemur
    rfemur rtibia
    rtibia rfoot
    rfoot rtoes
    lowerback upperback
    upperback thorax
    thorax lowerneck lclavicle rclavicle
    lowerneck upperneck
    upperneck head
    lclavicle lhumerus
    lhumerus lradius
    lradius lwrist
    lwrist lhand lthumb
    lhand lfingers
    rclavicle rhumerus
    rhumerus rradius
    rradius rwrist
    rwrist rhand rthumb
    rhand rfingers
  end

#!OML:ASF H:\Male1\Project 1\Capture day 1\Session 1\Male1.ASF
:FULLY-SPECIFIED
:DEGREES
111
root 28.9327 14.7206 0.716954 292.849 -84.0028 -296.619
lowerback 3.9345 0.554425 -8.95097
upperback 4.6915 0.439677 -2.45674
thorax 2.62447 -0.0812077 2.44714
lowerneck -6.72914 2.65015 6.64928
upperneck 16.5454 2.92734 -2.45551
head 6.26833 1.55048 -1.67183
rclavicle -2.08724e-015 -1.66979e-014
rhumerus -34.5442 -0.0909643 -89.5053
rradius 33.8858
rwrist -18.6562
rhand -15.9058 -0.137019
rfingers 7.12502
rthumb 10.291 -29.8652
lclavicle -2.08724e-015 -1.66979e-014
lhumerus -31.3362 -5.57985 88.1457
lradius 43.2367
lwrist 7.70517
lhand -18.2202 10.8603
lfingers 7.12502
lthumb 8.05779 40.6867
rfemur -33.982 16.2517 13.7495
rtibia 35.7037
rfoot -27.1932 -26.692
rtoes -23.6664
lfemur 16.1043 -6.32182 -33.8783
ltibia 17.8936
lfoot -27.2497 14.8595
ltoes -10.9604
112
root 28.6802 14.6826 0.701424 296.482 -83.2372 -300.214
lowerback 4.01292 0.427095 -9.34132
upperback 4.65321 0.248651 -2.56974
thorax 2.56489 -0.184155 2.5487
lowerneck -6.77759 2.49156 6.49713
upperneck 16.7606 2.67933 -2.2011
head 6.32814 1.43994 -1.58492
rclavicle 8.54774e-015 -2.78299e-015
rhumerus -34.9063 -0.569569 -89.3407
rradius 33.7514
rwrist -18.8217
rhand -15.9457 -0.110936
rfingers 7.12502
rthumb 10.2526 -29.8411
lclavicle 8.54774e-015 -2.78299e-015
lhumerus -31.5528 -5.85523 88.182
lradius 43.3102
lwrist 8.106
lhand -18.0446 11.1559
lfingers 7.12502
lthumb 8.22728 40.9758
rfemur -34.5852 17.9487 12.0514
rtibia 34.5508
rfoot -31.3498 -28.6693
rtoes -18.223
lfemur 17.9813 -5.68907 -33.9148
ltibia 16.07
lfoot -25.979 14.3029
ltoes -13.2974
113
root 28.4017 14.6446 0.69172 296.031 -82.9095 -299.61
lowerback 3.52267 0.498599 -9.51287
upperback 4.6931 0.405709 -2.62536
thorax 2.86662 -0.123402 2.58355
lowerneck -7.03589 2.37077 6.46136
upperneck 17.0592 2.46533 -2.01272
head 6.45643 1.3492 -1.53384
rclavicle -4.27387e-015 -2.62396e-014
rhumerus -35.1646 -1.18315 -89.0626
rradius 33.5272
rwrist -19.002
rhand -15.8086 -0.112475
rfingers 7.12502
rthumb 10.3848 -29.836
lclavicle -4.27387e-015 -2.62396e-014
lhumerus -31.6172 -6.11651 88.2437
lradius 43.1487
lwrist 8.26887
lhand -17.7985 11.7161
lfingers 7.12502
lthumb 8.46475 41.5264
rfemur -35.3791 19.7174 10.7144
rtibia 33.8198
rfoot -34.5559 -30.8125
rtoes -14.1647
lfemur 19.817 -4.94737 -33.8083
ltibia 14.3308
lfoot -24.861 13.7729
ltoes -15.7929
114
root 28.1379 14.6014 0.67386 299.908 -82.2064 -303.568
lowerback 3.6944 0.360355 -9.72458
upperback 4.69773 0.195155 -2.69533
thorax 2.80159 -0.232387 2.62969
lowerneck -7.13617 2.29302 6.44112
upperneck 17.2576 2.32384 -1.85983
head 6.52965 1.2918 -1.49244
rclavicle 3.03147e-015 3.22031e-014
rhumerus -35.548 -1.73566 -88.8462
rradius 33.4401
rwrist -19.359
rhand -15.4994 -0.482215
rfingers 7.12502
rthumb 10.6831 -30.1906
lclavicle 3.03147e-015 3.22031e-014
lhumerus -31.7347 -6.18469 88.1946
lradius 42.8544
lwrist 8.09404
lhand -17.6803 12.0599
lfingers 7.12502
lthumb 8.57891 41.8656
rfemur -35.4885 20.4875 9.71509
rtibia 33.4006
rfoot -38.608 -31.8175
rtoes -9.22548
lfemur 21.8054 -4.86911 -33.7195
ltibia 12.7434
lfoot -23.635 12.8279
ltoes -18.1139
115
root 27.8716 14.5682 0.655205 303.788 -81.6472 -307.522
lowerback 3.8228 0.555588 -9.1755
upperback 4.61855 0.44292 -3.14263
thorax 2.61567 -0.0778225 1.85928
lowerneck -7.07687 1.85458 7.05895
upperneck 17.4428 1.58819 -1.60869
head 6.55429 0.995206 -1.5734
rclavicle -5.46658e-015 -3.57812e-014
rhumerus -36.2861 -3.79409 -88.7702
rradius 33.3734
rwrist -19.3803
rhand -15.3364 -1.00778
rfingers 7.12502
rthumb 10.8403 -30.708
lclavicle -5.46658e-015 -3.57812e-014
lhumerus -31.861 -7.56655 87.9371
lradius 42.2892
lwrist 7.9276
lhand -17.7345 12.0171
lfingers 7.12502
lthumb 8.52653 41.825
rfemur -35.2061 20.0644 9.56824
rtibia 33.2921
rfoot -41.9324 -31.5564
rtoes -2.50393
lfemur 23.5924 -4.8801 -33.4019
ltibia 11.5354
lfoot -22.4287 11.4033
ltoes -18.9407
